<?xml version="1.0" encoding="utf-8"?>
<!-- Generator: Adobe Illustrator 16.0.0, SVG Export Plug-In . SVG Version: 6.00 Build 0)  -->
<!DOCTYPE svg PUBLIC "-//W3C//DTD SVG 1.1//EN" "http://www.w3.org/Graphics/SVG/1.1/DTD/svg11.dtd">
<svg version="1.1" id="Layer_1" xmlns="http://www.w3.org/2000/svg" xmlns:xlink="http://www.w3.org/1999/xlink" x="0px" y="0px"
	 width="1020.076px" height="216.4px" viewBox="0 0 1020.076 216.4" enable-background="new 0 0 1020.076 216.4"
	 xml:space="preserve">
<g>
	<g>
		<path fill="#FFFFFF" d="M257.634,160.423V83.742h9.129l2.405,9.783c6.724-6.528,14.808-9.783,24.246-9.783v11.241
			c-9.151,0-16.575,3.238-22.276,9.709v55.73H257.634z"/>
		<path fill="#FFFFFF" d="M303.277,122.077c0-25.566,12.166-38.335,36.509-38.335c24.349,0,36.521,12.769,36.521,38.335
			c0,25.52-12.172,38.266-36.521,38.266C315.541,160.343,303.375,147.597,303.277,122.077z M339.786,149.469
			c15.341,0,23.011-9.232,23.011-27.685c0-18.063-7.67-27.093-23.011-27.093c-15.335,0-23,9.031-23,27.093
			C316.786,140.236,324.451,149.469,339.786,149.469z"/>
		<path fill="#FFFFFF" d="M452.258,158.229c-6.327,1.459-13.142,2.193-20.444,2.193c-27.266,0-40.901-13.273-40.901-39.805
			c0-24.59,13.636-36.876,40.901-36.876c7.303,0,14.117,0.724,20.444,2.188v10.948c-6.327-1.458-13.389-2.187-21.18-2.187
			c-17.77,0-26.65,8.641-26.65,25.927c0,19.228,8.881,28.851,26.65,28.851c7.791,0,14.853-0.735,21.18-2.193V158.229z"/>
		<path fill="#FFFFFF" d="M469.424,160.423V55.978h13.51v33.747c7.452-3.99,16.041-5.982,25.778-5.982
			c19.09,0,28.637,7.372,28.637,22.127c0,10.708-7.309,18.108-21.914,22.196l24.533,32.357h-17.081l-24.4-32.508v-6.057
			c16.896-1.51,25.348-6.86,25.348-16.069c0-7.401-5.356-11.098-16.069-11.098c-8.423,0-16.701,2.285-24.831,6.861v58.871H469.424z"
			/>
		<path fill="#FFFFFF" d="M587.298,83.742c21.806,0,32.715,10.776,32.715,32.347c0,3.065-0.219,6.35-0.66,9.857h-53.819
			c0,15.68,9.146,23.522,27.454,23.522c8.722,0,16.461-0.977,23.23-2.929v10.955c-6.77,1.951-14.997,2.928-24.683,2.928
			c-26.347,0-39.517-13.078-39.517-39.225C552.019,96.224,563.776,83.742,587.298,83.742z M565.533,114.699h41.48
			c-0.292-13.435-6.866-20.158-19.716-20.158C573.669,94.542,566.405,101.265,565.533,114.699z"/>
		<path fill="#FFFFFF" d="M638.2,71.318h8.469l2.922,12.424h20.738v10.949h-18.625v44.036c0,7.159,3.094,10.742,9.277,10.742h9.348
			v10.954h-12.85c-12.854,0-19.279-6.89-19.279-20.674V71.318z"/>
		<path fill="#FFFFFF" d="M687.495,55.978h13.51v31.404c5.793-2.422,12.004-3.64,18.624-3.64c24.245,0,36.371,12.264,36.371,36.802
			c0,26.582-12.733,39.879-38.196,39.879c-11.006,0-21.105-1.051-30.309-3.141V55.978z M701.005,147.058
			c4.432,1.412,9.812,2.112,16.145,2.112c17.039,0,25.554-9.714,25.554-29.132c0-16.414-7.716-24.618-23.148-24.618
			c-7.005,0-13.194,1.32-18.55,3.95V147.058z"/>
		<path fill="#FFFFFF" d="M770.606,122.077c0-25.566,12.166-38.335,36.508-38.335c24.35,0,36.526,12.769,36.526,38.335
			c0,25.52-12.177,38.266-36.526,38.266C782.869,160.343,770.704,147.597,770.606,122.077z M807.114,149.469
			c15.342,0,23.012-9.232,23.012-27.685c0-18.063-7.67-27.093-23.012-27.093c-15.334,0-22.999,9.031-22.999,27.093
			C784.115,140.236,791.78,149.469,807.114,149.469z"/>
		<path fill="#FFFFFF" d="M858.241,122.077c0-25.566,12.172-38.335,36.514-38.335c24.344,0,36.521,12.769,36.521,38.335
			c0,25.52-12.178,38.266-36.521,38.266C870.511,160.343,858.339,147.597,858.241,122.077z M894.755,149.469
			c15.336,0,23.006-9.232,23.006-27.685c0-18.063-7.67-27.093-23.006-27.093c-15.334,0-22.999,9.031-22.999,27.093
			C871.756,140.236,879.421,149.469,894.755,149.469z"/>
		<path fill="#FFFFFF" d="M949.533,160.423V55.978h13.503v33.747c7.459-3.99,16.047-5.982,25.79-5.982
			c19.084,0,28.62,7.372,28.62,22.127c0,10.708-7.303,18.108-21.908,22.196l24.538,32.357h-17.086l-24.396-32.508v-6.057
			c16.892-1.51,25.343-6.86,25.343-16.069c0-7.401-5.356-11.098-16.069-11.098c-8.418,0-16.696,2.285-24.832,6.861v58.871H949.533z"
			/>
	</g>
	<g>
		<path fill="#FFFFFF" d="M181.878,127.215c10.3-12.177,21.443-33.247,28.092-53.629c9.565-29.292,8.348-51.936-3.438-63.717
			C199.975,3.313,190.295,0,177.778,0c-30.359,0-70.824,19.606-88.616,34.499c-1.407,1.177-2.704,2.325-3.813,3.439L5.265,118.018
			l24.125,24.125L0,171.526l35.395,9.473l9.462,35.401l29.396-29.401l24.113,24.119l80.091-80.091
			C179.576,129.913,180.735,128.57,181.878,127.215z M177.784,10.236c9.703,0,16.932,2.32,21.495,6.873
			c8.79,8.795,9.141,28.212,0.959,53.291c-6.774,20.737-17.339,39.46-25.605,49.559c-1.194,1.459-2.343,2.733-3.422,3.824
			c-1.218,1.217-2.544,2.296-3.916,3.33c-6.844,5.144-15.479,7.957-24.894,7.957c-15.037,0-30.48-6.82-42.371-18.705
			c-10.621-10.621-17.189-23.987-18.487-37.611c-1.067-11.351,1.671-21.673,7.711-29.677c1.027-1.366,2.124-2.675,3.342-3.893
			c1.096-1.091,2.417-2.25,3.841-3.41C113.189,27.972,150.909,10.236,177.784,10.236z M43.766,172.629l-23.964-6.407l16.833-16.834
			l30.36,30.372l-16.822,16.827L43.766,172.629z M98.371,196.627l-78.615-78.609l51.906-51.907
			c-0.597,4.38-0.758,8.916-0.304,13.601c1.504,15.995,9.123,31.577,21.432,43.881c13.791,13.808,31.876,21.719,49.611,21.719
			c2.687,0,5.305-0.241,7.882-0.597L98.371,196.627z"/>
		<g>
			<path fill="#FFFFFF" d="M158.247,85.04c-7.188,0-13.94-2.796-19.021-7.877c-10.495-10.495-10.495-27.546-0.011-38.047
				c5.081-5.081,11.838-7.883,19.032-7.889c7.177,0.018,13.939,2.802,19.021,7.889c5.081,5.081,7.877,11.833,7.877,19.032
				c0,7.177-2.802,13.94-7.877,19.027C172.187,82.238,165.435,85.04,158.247,85.04z M158.253,41.48
				c-4.456,0-8.641,1.751-11.793,4.88c-6.487,6.493-6.487,17.063,0.006,23.556c6.292,6.287,17.27,6.287,23.551,0
				c3.151-3.146,4.886-7.337,4.88-11.781c0.006-4.443-1.729-8.629-4.88-11.764C166.87,43.22,162.696,41.48,158.253,41.48z"/>
		</g>
	</g>
</g>
</svg>
